<svg viewBox="100.2224 128.5532 299.5552 242.8935" width="5000" height="4054.236080695644" xmlns="http://www.w3.org/2000/svg" xmlns:xlink="http://www.w3.org/1999/xlink" preserveAspectRatio="none"><defs></defs><style>.a39oUp-7FXrcolor {fill:#FFFFFF;fill-opacity:1;}.a39oUp-7FXrstrokeColor-str {stroke:#D9D9D9;stroke-opacity:1;}</style><g opacity="1" transform="rotate(0 161.6308 128.5532)">
<svg width="157.2546" height="171.2604" x="161.6308" y="128.5532" version="1.1" preserveAspectRatio="none" viewBox="21.255979537963867 11.235589027404783 158.98179626464844 173.1414031982422">
  <g transform="matrix(1 0 0 1 0 0)"><g><path data-color="1" d="M180.006 71.466a399.634 399.634 0 0 1-1.048-3.291c-2.201-6.975-4.94-15.655-8.858-21.04-2.22-3.049-7.343-2.888-13.154-2.197-2.387-1.927-4.875-3.731-7.336-5.502-.765-.55-1.529-1.1-2.289-1.653-2.79-2.03-4.926-6.737-6.992-11.29-2.7-5.95-5.493-12.103-10.117-13.604-6.008-1.952-14.712-1.725-22.389-1.526-2.169.056-4.217.109-6.082.109-3.218 0-5.882 2.808-8.324 6.513a11.425 11.425 0 0 0-1.14-.062c-3.106 0-6.484.729-9.866 1.791-1.969.179-3.868.502-5.631 1.074-3.461 1.124-6.884 3.07-10.163 5.273l-.067.029c-1.199.497-2.221 1.262-3.118 2.209a266.38 266.38 0 0 0-3.992 2.983 243.978 243.978 0 0 1-3.65 2.729c-3.115 2.267-3.709 6.689-3.939 11.303-.527.23-1.056.461-1.58.686-4.602 1.974-9.36 4.014-12.366 8.145-.6.824-1.163 1.675-1.702 2.541-5.187 1.456-9.775 3.372-11.338 7.142-3.18 7.67-3.609 19.753-3.609 30.562 0 3.765 3.097 6.754 7.083 9.461 1.118 1.978 2.563 3.844 3.987 5.678.583.751 1.155 1.491 1.701 2.228-.976 3.52-1.629 6.966-.357 10.886 1.394 4.295 2.763 7.992 4.565 11.606.226 2.55.839 4.964 2.329 7.011 1.811 2.489 3.08 5.905 4.423 9.521 1.927 5.189 3.92 10.553 7.745 13.337 1.315.957 2.851 1.674 4.506 2.253 1.822 1.771 3.561 3.992 5.372 6.311 3.59 4.598 7.302 9.353 12.137 10.922 1.713.556 3.575.773 5.525.773 3.517 0 7.318-.705 11.041-1.395 3.55-.658 7.221-1.339 10.429-1.339 4.963 0 8.743-4.243 12.398-8.346 2.775-3.114 5.645-6.335 8.853-7.377 8.174-2.653 13.115-4.386 19.625-9.123 6.837-4.976 10.741-8.848 15.47-15.346 3.521-4.839 4.675-9.123 6.01-14.084.51-1.898 1.039-3.86 1.739-6.016.922-2.839 2.301-5.289 3.635-7.659 2.258-4.011 4.391-7.799 4.391-13.17 0-3.464 1.088-7.003 2.14-10.426 1.198-3.9 2.425-7.908 1.982-11.762 1.768-2.405 2.723-4.707 2.021-6.868zM101.74 12.773c1.882 0 3.939-.053 6.116-.11 2.395-.063 4.891-.127 7.369-.127 5.356 0 10.622.303 14.589 1.586 4.078 1.324 6.75 7.212 9.334 12.905 2.234 4.923 4.344 9.573 7.411 11.804.761.554 1.527 1.105 2.294 1.657 2.107 1.517 4.238 3.054 6.302 4.673-.495.064-.992.13-1.492.196-2.979.396-6.007.796-8.612.811-5.489-5.237-12.039-9.284-21.047-13.019-.89-.368-1.777-.743-2.666-1.118-2.314-.977-4.655-1.963-7.047-2.85-.336-.373-.671-.749-1.003-1.123-3.475-3.907-7.068-7.948-11.758-7.948-.59 0-1.204-.029-1.806-.045-1.618-.849-3.252-1.505-4.899-1.855 2.132-3.141 4.392-5.437 6.915-5.437zm69.15 71.382c-4.32 4.303-8.787 8.752-8.787 12.808 0 2.712.229 5.005.451 7.223.137 1.37.262 2.679.323 3.982-3.262 3.01-6.563 6.122-7.973 9.522-1.451 3.501-1.777 7.658-2.092 11.678-.448 5.727-.878 11.135-4.278 14.658-.549.267-1.103.533-1.663.798-2.505 1.188-5.094 2.417-7.532 4.191-5.113 3.72-9.264 5.019-15.009 6.816-1.057.331-2.161.677-3.326 1.055-2.387.775-4.483 1.704-6.509 2.602-4.006 1.774-7.789 3.451-12.964 3.451-3.567 0-7.222 1.654-10.769 3.308-2.001-1.712-3.934-3.833-5.838-5.925-3.344-3.673-6.503-7.144-10.03-8.607-2.123-.88-4.242-1.64-6.292-2.375-5.628-2.019-10.961-3.934-15.374-7.96 1.532.008 3.102-.044 4.659-.095 4.399-.144 8.948-.295 12 .971 1.945.806 3.918 1.789 5.827 2.74 5.156 2.569 10.489 5.225 16.565 5.225 2.127 0 4.307.111 6.617.229 2.333.119 4.694.239 7.013.239 4.101 0 8.069-.377 11.509-1.803 4.579-1.899 7.052-6.957 9.444-11.849 1.591-3.253 3.235-6.616 5.438-8.818 3.503-3.503 4.031-7.701 4.591-12.144.356-2.83.725-5.757 1.91-8.614 1.179-2.845 3.545-5.203 5.834-7.483 3.325-3.313 6.764-6.739 6.764-11.783 0-9.661-1.133-16.515-3.789-22.919-3.66-8.827-7.506-14.977-12.471-19.943l-.186-.186c-1.754-1.755-3.527-3.528-5.362-5.231 2.888 1.636 5.523 3.55 8.751 5.9l.222.161c1.466 1.067 3.539 1.458 5.963 1.494.174.169.349.335.521.506 2.581 2.58 6.295 4.565 10.228 6.668 5.55 2.968 11.289 6.036 13.259 10.787 1.774 4.277 2.921 10.09 3.465 17.613-.369.371-.74.741-1.11 1.11zm1.22.618c.172 2.955.26 6.152.26 9.614 0 4.693-4.055 8.743-8.255 12.636-.07-.972-.167-1.952-.268-2.966-.219-2.187-.445-4.448-.445-7.094 0-3.516 4.272-7.771 8.404-11.887l.304-.303zm-9.199 25.138c-.022 2.093-.289 4.233-1.073 6.649-1 3.081-1.215 6.151-1.423 9.121-.298 4.25-.579 8.263-3.137 11.778-1.685 2.315-3.778 3.877-6.078 5.182 2.165-3.705 2.543-8.5 2.909-13.169.307-3.919.624-7.971 1.997-11.281 1.191-2.874 3.848-5.53 6.805-8.28zm-17.393 37.005c-6.314 5.747-13.339 10.422-19.71 13.064-2.152.893-4.431 2.007-6.845 3.188-6.432 3.146-13.723 6.71-20.326 6.71-2.365 0-4.597-1.087-6.744-2.721 3.235-1.5 6.541-2.917 9.639-2.917 5.45 0 9.356-1.731 13.491-3.563 1.996-.885 4.06-1.8 6.383-2.554 1.16-.377 2.26-.721 3.313-1.05 5.642-1.766 10.099-3.16 15.385-7.007 1.736-1.262 3.578-2.249 5.414-3.15zm-99.927-29.411c1.053 3.078 1.261 6.438 1.453 9.699.264 4.485.54 9.101 3.131 12.752-2.933-.244-5.486-.914-7.115-2.543-2.718-2.718-.753-9.078 1.146-15.227.483-1.563.968-3.14 1.385-4.681zm-.479-3.651c-1.888-2.358-5.038-4.408-8.5-6.475.491-1.903.877-3.894.957-6.058 3.404 2.004 6.445 4.102 7.421 6.456.648 1.565.566 3.69.122 6.077zm3.228 13.273c-.22-3.724-.447-7.575-1.916-11.117a7.655 7.655 0 0 0-.302-.635c.7-3.116.949-5.972.069-8.096-1.2-2.893-4.673-5.185-8.649-7.479-.258-3.79-2.461-7.395-4.621-10.886-.233-.376-.463-.75-.691-1.122.586-.658 1.197-1.315 1.815-1.98l.473-.511c1.036 5.025 5.369 9.464 9.579 13.772 2.689 2.753 5.23 5.354 6.718 7.925.402.697.802 1.396 1.203 2.097 3.909 6.84 7.952 13.912 14.883 17.922l1.385.805c6.865 3.995 15.409 8.967 23.993 8.967 6.216 0 11.24-4.217 16.099-8.296 2.414-2.026 4.693-3.939 7.063-5.31 5.304-3.068 7.236-7.703 9.281-12.609.94-2.255 1.912-4.587 3.257-6.912 1.456-2.516 3.473-4.682 5.423-6.776 3.567-3.83 7.255-7.791 7.255-13.825 0-2.756.346-5.781.68-8.708.764-6.691 1.555-13.611-1.441-18.788-2.849-4.925-9.093-6.717-15.131-8.449-3.426-.983-6.968-2-9.677-3.567-2.489-1.441-4.842-3.583-7.332-5.852-4.625-4.213-9.407-8.57-15.476-8.57-1.218 0-2.516.013-3.859.043.485-.812.969-1.656 1.454-2.518 2.934.305 5.94.601 8.763.601 4.498 0 8.727.948 12.796 2.297 1.044.681 2.071 1.292 3.085 1.793 2.079 2.201 4.267 4.144 6.731 4.945a49.02 49.02 0 0 1 3.823 1.411c3.158 2.566 6.087 5.49 8.963 8.367l.187.187c4.838 4.838 8.598 10.859 12.189 19.521 2.586 6.236 3.69 12.942 3.69 22.421 0 4.504-3.1 7.592-6.382 10.862-2.379 2.37-4.839 4.821-6.118 7.906-1.252 3.019-1.632 6.034-1.999 8.95-.532 4.216-1.033 8.198-4.22 11.386-2.356 2.356-4.049 5.819-5.687 9.168-2.286 4.674-4.649 9.508-8.774 11.218-5.116 2.122-11.645 1.788-17.96 1.468-2.224-.114-4.523-.231-6.683-.231-5.771 0-10.964-2.586-15.986-5.088-1.928-.96-3.922-1.953-5.908-2.777-2.266-.939-5.179-1.164-8.246-1.164-1.415 0-2.863.047-4.294.094-2.001.065-4.024.129-5.94.067-3-3.438-3.278-8.053-3.565-12.927zM30.627 87.654c-1.476 1.725-2.775 3.528-3.555 5.495-1.678-1.517-2.763-3.146-2.763-4.956 0-6.333 3.266-13.573 6.146-19.962.762-1.687 1.48-3.281 2.101-4.777.185-.446.417-.866.678-1.268-2.303 4.884-3.954 9.947-5.377 14.33-1.21 3.724.582 7.473 2.77 11.138zm.71 1.172l.478.774c1.901 3.071 3.849 6.232 4.349 9.412l-.766-.433c-2.595-1.464-5.224-2.954-7.275-4.557.635-1.83 1.811-3.525 3.214-5.196zm8.898-11.78c.216-.665.442-1.295.676-1.905 1.828-1.391 3.94-2.705 6.025-4.002 4.293-2.671 8.349-5.194 10.184-8.366 1.897-3.279 2.236-8.115 2.564-12.793.171-2.437.348-4.902.744-7.142.16-.354.32-.709.476-1.066 3.524-2.11 7.278-2.594 11.229-3.09 2.873-.36 5.844-.732 8.946-1.74 2.436-.79 4.521-3.283 6.529-6.452 1.635-.046 3.21-.063 4.671-.063 5.565 0 10.159 4.183 14.601 8.234 2.431 2.215 4.946 4.506 7.556 6.016 2.848 1.648 6.469 2.686 9.97 3.691 5.79 1.663 11.778 3.381 14.365 7.851 2.78 4.805 2.014 11.509 1.274 17.99-.338 2.962-.688 6.025-.688 8.855 0 5.522-3.355 9.125-6.907 12.939-2 2.147-4.067 4.367-5.597 7.012-1.388 2.397-2.376 4.769-3.332 7.062-2.043 4.902-3.808 9.135-8.732 11.984-2.467 1.427-4.789 3.376-7.247 5.439-4.68 3.927-9.52 7.989-15.263 7.989-8.234 0-16.258-4.67-23.339-8.79l-1.388-.806c-6.628-3.835-10.582-10.752-14.406-17.442-.402-.703-.803-1.405-1.207-2.102-1.57-2.713-4.165-5.371-6.914-8.184-4.352-4.455-8.844-9.053-9.388-14.091 1.964-2.186 3.769-4.474 4.598-7.028zm-4.565 5.019c.32-1.931 1.549-3.66 3.269-5.268-.637 1.859-1.832 3.571-3.269 5.268zm50.347-51.518c-1.699 2.553-3.463 4.551-5.338 5.16-2.985.97-5.894 1.334-8.707 1.687-3.551.446-6.949.878-10.227 2.445a100.657 100.657 0 0 1 1.774-3.919 6.212 6.212 0 0 1 1.072-.806c5.594-3.237 14.01-4.265 21.426-4.567zM64.76 33.556c1.593-2.773 3.502-5.069 6.127-6.157 2.679-1.112 5.724-1.474 8.921-1.474 2.817 0 5.751.283 8.655.583a84.42 84.42 0 0 1-1.593 2.705c-7.443.251-16.076 1.198-22.11 4.343zm42.936-8.229c-1.839-1.343-3.701-2.702-5.584-3.884 3.54.311 6.557 3.401 9.452 6.632-1.256-.844-2.545-1.781-3.868-2.748zm10.567 7.768a36.67 36.67 0 0 1 3.016 1.804c-1.036-.398-2.04-1.02-3.016-1.804zm3.314.443c.642.271 1.284.542 1.928.809 8.257 3.424 14.402 7.104 19.549 11.74-1.518-.144-2.808-.492-3.727-1.16l-.222-.162c-4.829-3.515-8.354-6.075-13.356-8.191a47.858 47.858 0 0 0-4.172-3.036zm-27.52-14.159c.7.119 1.401.306 2.103.544-.603-.033-1.19-.061-1.81-.097a102.05 102.05 0 0 0-.552-.031c.087-.139.173-.28.259-.416zm.221 1.744c1.77.103 3.455.183 5.111.234 2.532 1.362 5.059 3.204 7.542 5.018l1.15.839c-3.023-.769-6.154-1.258-9.443-1.258-2.584 0-5.351-.256-8.074-.536l.28-.503c.723-1.3 1.452-2.606 2.192-3.86.414.023.829.042 1.242.066zm-1.999-1.901c.113 0 .226.012.339.016-.098.158-.196.314-.293.474-1.284-.07-2.568-.123-3.846-.155 1.304-.213 2.578-.335 3.8-.335zM64.304 29.274a100.32 100.32 0 0 1 2.947-2.07 257.622 257.622 0 0 0 3.68-1.581c3.609-1.572 7.704-3.354 11.768-4.638a46.318 46.318 0 0 1 3.964-.158c1.617 0 3.264.069 4.912.153a200.15 200.15 0 0 0-1.866 3.305l-.552.99c-6.534-.682-13.273-1.355-18.767.924-3.664 1.519-5.991 4.982-7.92 8.907-1.55 1.498-2.456 3.619-3.024 6.047-.185.125-.371.248-.555.383-.222.161-.466.298-.695.451.359-.908.704-1.83 1.046-2.745 1.393-3.733 2.824-7.554 5.062-9.968zm-7.749 5.789c1.186-.863 2.412-1.791 3.67-2.743l.813-.615c-1.171 2.154-2.102 4.636-3.016 7.085-.548 1.468-1.104 2.953-1.711 4.357a44.743 44.743 0 0 1-3.128 1.568c.239-4.154.838-7.808 3.372-9.652zm-3.501 12.622c.018-.505.037-1.006.058-1.504.761-.339 1.519-.69 2.266-1.061-.692 1.345-1.462 2.545-2.36 3.488l.036-.923zm-.123 2.785c.298-.249.588-.503.855-.77 1.445-1.446 2.558-3.435 3.529-5.615a27.523 27.523 0 0 0 1.549-.957c-1.26 2.709-2.653 5.25-4.445 7.042a9.25 9.25 0 0 1-1.546 1.215c.022-.304.041-.608.058-.915zm-.202 2.525c1.002-.553 1.882-1.18 2.608-1.905 1.283-1.283 2.357-2.893 3.32-4.652a161.585 161.585 0 0 0-.268 3.45c-.317 4.53-.645 9.213-2.392 12.233-1.673 2.891-5.595 5.33-9.746 7.913-1.475.917-2.962 1.843-4.363 2.802 1.716-3.668 3.826-6.477 6.327-9.803.739-.982 1.511-2.008 2.314-3.112 1.328-1.825 1.909-4.273 2.2-6.926zm-1.222-.841c-1.188.591-2.543 1.1-3.995 1.558 1.438-.672 2.818-1.395 4.047-2.22a28.16 28.16 0 0 1-.052.662zm-12.551 2.754c2.796-3.843 7.183-5.724 11.827-7.715l1.005-.432-.033.876c-.026.725-.056 1.452-.091 2.176-2.223 1.707-5.229 2.998-8.162 4.247-1.322.563-2.655 1.133-3.938 1.746-.491.122-.98.246-1.467.371.285-.423.557-.853.859-1.269zm-2.737 4.299c1.137-.808 2.433-1.518 3.8-2.176.451-.112.903-.223 1.354-.333 3.638-.89 7.144-1.751 9.959-3.013-.297 2.132-.823 4.054-1.854 5.47-.799 1.099-1.567 2.119-2.302 3.097-2.994 3.981-5.439 7.238-7.348 12.081-3.192 2.483-5.544 5.258-5.544 8.727 0 .183.019.362.028.544-.4.439-.806.879-1.219 1.323-.523.563-1.048 1.129-1.564 1.702-1.989-3.373-3.448-6.598-2.436-9.713 2.186-6.732 4.203-12.524 7.126-17.709zM22.554 94.389c0-10.68.417-22.604 3.511-30.064 1.228-2.963 4.85-4.684 9.15-5.999-1.701 1.251-3.078 2.738-3.863 4.631-.612 1.477-1.327 3.062-2.084 4.741-2.934 6.508-6.26 13.883-6.26 20.496 0 2.41 1.456 4.45 3.622 6.292a9.891 9.891 0 0 0-.321 2.479c0 1.563.326 3.032.862 4.436-2.712-2.116-4.617-4.398-4.617-7.012zm5.055 2.575c0-.541.053-1.068.149-1.583 2.054 1.535 4.542 2.944 7 4.331.511.288 1.024.578 1.533.869-.006 2.173-.364 4.183-.843 6.109l-.747-.44c-1.833-1.079-3.683-2.169-5.37-3.298-1.031-1.89-1.722-3.867-1.722-5.988zm5.743 11.768c-.82-1.056-1.646-2.123-2.409-3.213 1.02.625 2.062 1.24 3.101 1.852l1.059.625a144.682 144.682 0 0 1-.629 2.195c-.372-.489-.747-.976-1.122-1.459zm4.842 19.187c-.033.997-.065 2-.073 2.999-1.181-2.705-2.192-5.528-3.215-8.681-1.038-3.198-.654-6.134.099-9.104 1.034 1.515 1.904 3.042 2.429 4.66.997 3.07.877 6.657.76 10.126zm1.299.044c.12-3.581.245-7.284-.823-10.572-.673-2.072-1.873-4.014-3.222-5.887.115-.402.232-.805.35-1.211.155-.531.31-1.068.462-1.608 3.596 2.162 6.951 4.412 8.481 6.902-.477 1.999-1.13 4.12-1.777 6.216-1.801 5.831-3.504 11.378-1.918 14.911a55.442 55.442 0 0 1-1.546-2.855c-.141-1.871-.076-3.859-.007-5.896zm6.712 22.365c-1.375-3.702-2.674-7.199-4.591-9.834a9.82 9.82 0 0 1-1.258-2.382 63.796 63.796 0 0 0 3.135 4.725c1.943 2.67 3.132 6.033 4.281 9.285 1.376 3.896 2.813 7.885 5.558 10.813-3.401-2.595-5.295-7.68-7.125-12.607zm9.74 13.227c-3.706-2.697-5.28-7.152-6.947-11.869-1.181-3.341-2.401-6.795-4.456-9.618a62.95 62.95 0 0 1-2.839-4.248c.136.177.275.352.437.513 2.14 2.139 5.471 2.831 9.18 3 .061.064.116.131.179.195 4.769 4.769 10.548 6.842 16.666 9.037 2.035.73 4.139 1.485 6.232 2.353 3.259 1.351 6.323 4.718 9.566 8.281 1.794 1.971 3.613 3.963 5.509 5.648-4.105 1.903-7.983 3.521-11.429 2.402-2.865-.929-6.177-1.402-9.683-1.901-3.595-.512-7.26-1.047-10.407-2.103a19.874 19.874 0 0 0-2.008-1.69zm116.619-63.036c0 5.03-2.052 8.674-4.224 12.532-1.365 2.426-2.778 4.934-3.739 7.895-.71 2.188-1.243 4.167-1.758 6.08-1.302 4.836-2.426 9.012-5.806 13.656-4.64 6.374-8.471 10.175-15.184 15.061-6.35 4.622-11.213 6.325-19.261 8.938-3.544 1.15-6.532 4.505-9.422 7.749-3.465 3.888-7.047 7.909-11.428 7.909-3.327 0-7.059.692-10.667 1.361-5.623 1.043-11.438 2.121-15.926.664-4.457-1.447-8.045-6.042-11.514-10.485-1.302-1.667-2.567-3.284-3.863-4.737 2.675.676 5.564 1.089 8.405 1.494 3.449.492 6.707.955 9.465 1.851a8.975 8.975 0 0 0 2.791.426c3.285 0 6.746-1.56 10.132-3.139 2.504 2.018 5.155 3.406 8.072 3.406 6.903 0 14.338-3.636 20.899-6.842 2.395-1.171 4.657-2.277 6.772-3.154 7.514-3.116 15.906-8.985 23.023-16.102 3.401-1.667 6.556-3.502 8.998-6.857 2.779-3.817 3.072-8.012 3.383-12.453.202-2.892.411-5.882 1.362-8.81.992-3.055 1.212-5.662 1.132-8.249 3.37-3.108 6.793-6.297 8.444-9.917-.05.574-.086 1.148-.086 1.723zm-2.828-35.582c-2.148-5.181-8.096-8.361-13.847-11.436-3.642-1.947-7.081-3.797-9.512-6.064 2.31-.111 4.852-.446 7.459-.792a270.14 270.14 0 0 1 2.719-.352c3.063 2.509 5.925 5.235 8.241 8.418 5.3 7.282 9.148 14.551 11.438 21.604.177.544.305 1.093.395 1.647-.966 1.257-2.154 2.555-3.426 3.863-.587-7.123-1.734-12.708-3.467-16.888zm5.025 24.774a111.903 111.903 0 0 0-1.097 3.735c-.017-3.57-.126-6.867-.331-9.899 1.243-1.253 2.425-2.487 3.451-3.697.036 3.143-.969 6.433-2.023 9.861zm2.708-13.795c-2.332-7.183-6.243-14.573-11.624-21.968-2.148-2.952-4.726-5.512-7.493-7.859 4.775-.496 9.037-.473 10.699 1.811 3.793 5.213 6.497 13.781 8.669 20.666.362 1.15.712 2.257 1.051 3.302.448 1.379-.07 2.962-1.131 4.652-.054-.202-.106-.404-.171-.604z" style="fill:#FFFFFF;fill-opacity:1;"></path></g></g>
</svg>
</g><g opacity="1" transform="rotate(0 100.2224 353.2637)">
<svg width="299.5552" height="18.183" x="100.2224" y="353.2637" version="1.1" preserveAspectRatio="none" viewBox="3.88 -20 333.66290000000004 20.24">
  <g transform="matrix(1 0 0 1 0 0)" class="a39oUp-7FXrcolor"><path id="id-39oUp-7FXr16" d="M13.88-1.68L14.04-1.48L13.84 0L3.88 0L3.92-6L3.88-19.80L5.84-19.80L5.76-6.16L5.80-1.68L13.88-1.68Z M30.01-19.80L37.29 0L35.25 0L34.81-1.80L33.33-5.76L23.89-5.76L22.33-1.88L21.81 0L19.81 0L27.77-19.80L30.01-19.80ZM28.57-7.36L32.73-7.40L28.93-17.68L28.73-17.68L24.57-7.40L28.57-7.36Z M62.51-19.92Q64.83-19.92 66.99-19L66.99-19L66.67-17.08L66.31-17Q64.31-18.36 62.31-18.36L62.31-18.36Q60.31-18.36 59.13-17.26Q57.95-16.16 57.95-14.80L57.95-14.80Q57.95-13.48 59.01-12.68Q60.07-11.88 62.23-10.96L62.23-10.96Q64.03-10.12 65.07-9.50Q66.11-8.88 66.87-7.86Q67.63-6.84 67.63-5.36L67.63-5.36Q67.63-3.88 66.81-2.62Q65.99-1.36 64.47-0.60Q62.95 0.16 60.95 0.16L60.95 0.16Q59.59 0.16 58.15-0.18Q56.71-0.52 55.51-1.20L55.51-1.20L55.71-3.24L55.99-3.36Q57.03-2.40 58.45-1.90Q59.87-1.40 61.15-1.40L61.15-1.40Q63.15-1.40 64.41-2.50Q65.67-3.60 65.67-5.08L65.67-5.08Q65.67-6.48 64.61-7.30Q63.55-8.12 61.31-9.16L61.31-9.16Q59.59-9.96 58.53-10.58Q57.47-11.20 56.73-12.20Q55.99-13.20 55.99-14.64L55.99-14.64Q55.99-16.12 56.81-17.32Q57.63-18.52 59.11-19.22Q60.59-19.92 62.51-19.92L62.51-19.92Z M88.96-1.72L89.16-1.52L88.92 0L77.64 0L77.72-6L77.64-19.80L88.92-19.80L89.08-19.56L88.88-18.04L83.96-18.16L79.64-18.16L79.60-11.04L83.68-11L87.20-11.08L87.32-10.84L87.16-9.28L83.52-9.36L79.56-9.32L79.56-6.16L79.60-1.64L83.68-1.64L88.96-1.72Z M114.25-19.84L114.17-5.72L114.17 0L112.09 0L100.41-16.52L100.25-16.52L100.21-6.40L100.25 0L98.41 0L98.49-5.84L98.45-19.80L100.53-19.80L112.21-3.24L112.41-3.24L112.41-19.72L114.25-19.84Z M133.18-19.96Q137.66-19.96 140.06-17.52Q142.46-15.08 142.46-10.56L142.46-10.56Q142.46-5.36 139.92-2.60Q137.38 0.16 132.62 0.16L132.62 0.16Q131.34 0.16 129.42 0.12Q127.50 0.08 125.90 0L125.90 0L125.98-6L125.90-19.80L133.18-19.96ZM132.86-1.48Q136.54-1.48 138.50-3.70Q140.46-5.92 140.46-10.20L140.46-10.20Q140.46-14.20 138.58-16.22Q136.70-18.24 133.06-18.24L133.06-18.24Q132.14-18.24 130.66-18.20Q129.18-18.16 127.90-18.08L127.90-18.08L127.82-6.16L127.86-1.64Q130.58-1.48 132.86-1.48L132.86-1.48Z M159.19-19.80L166.47 0L164.43 0L163.99-1.80L162.51-5.76L153.07-5.76L151.51-1.88L150.99 0L148.99 0L156.95-19.80L159.19-19.80ZM157.75-7.36L161.91-7.40L158.11-17.68L157.91-17.68L153.75-7.40L157.75-7.36Z M194.09-8.08Q196.61-4.28 199.73-0.48L199.73-0.48L199.73-0.20Q198.97 0.12 197.97 0.24L197.97 0.24L197.61 0.04Q194.65-3.96 192.41-7.64L192.41-7.64L188.33-7.60L188.33-6.16L188.37 0L186.41 0L186.49-6L186.41-19.80L192.25-19.84Q195.29-19.84 196.93-18.38Q198.57-16.92 198.57-14.24L198.57-14.24Q198.57-12.12 197.41-10.52Q196.25-8.92 194.09-8.08L194.09-8.08ZM188.41-18.16L188.33-9.28L192.49-9.20Q194.49-9.72 195.51-10.96Q196.53-12.20 196.53-14.08L196.53-14.08Q196.53-18 191.93-18.24L191.93-18.24L188.41-18.16Z M220.82-1.72L221.02-1.52L220.78 0L209.50 0L209.58-6L209.50-19.80L220.78-19.80L220.94-19.56L220.74-18.04L215.82-18.16L211.50-18.16L211.46-11.04L215.54-11L219.06-11.08L219.18-10.84L219.02-9.28L215.38-9.36L211.42-9.32L211.42-6.16L211.46-1.64L215.54-1.64L220.82-1.72Z M236.86-19.96Q240.14-19.96 242.62-18.40L242.62-18.40L242.22-16.60L241.90-16.52Q240.86-17.36 239.52-17.82Q238.18-18.28 236.70-18.28L236.70-18.28Q233.30-18.28 231.52-16.16Q229.74-14.04 229.74-9.92L229.74-9.92Q229.74-5.80 231.48-3.64Q233.22-1.48 236.50-1.48L236.50-1.48Q237.98-1.48 239.48-2Q240.98-2.52 242.22-3.44L242.22-3.44L242.50-3.32L242.34-1.52Q239.58 0.20 236.46 0.20L236.46 0.20Q232.22 0.20 229.94-2.40Q227.66-5 227.66-9.80L227.66-9.80Q227.66-14.68 230.06-17.32Q232.46-19.96 236.86-19.96L236.86-19.96Z M259.15-20Q263.39-20 265.67-17.46Q267.95-14.92 267.95-10.28L267.95-10.28Q267.95-5.24 265.53-2.52Q263.11 0.20 258.67 0.20L258.67 0.20Q254.43 0.20 252.13-2.40Q249.83-5 249.83-9.76L249.83-9.76Q249.83-14.68 252.25-17.34Q254.67-20 259.15-20L259.15-20ZM258.99-18.28Q251.87-18.28 251.87-10L251.87-10Q251.87-1.48 258.75-1.48L258.75-1.48Q262.27-1.48 264.11-3.60Q265.95-5.72 265.95-9.96L265.95-9.96Q265.95-18.28 258.99-18.28L258.99-18.28Z M285.40-8.08Q287.92-4.28 291.04-0.48L291.04-0.48L291.04-0.20Q290.28 0.12 289.28 0.24L289.28 0.24L288.92 0.04Q285.96-3.96 283.72-7.64L283.72-7.64L279.64-7.60L279.64-6.16L279.68 0L277.72 0L277.80-6L277.72-19.80L283.56-19.84Q286.60-19.84 288.24-18.38Q289.88-16.92 289.88-14.24L289.88-14.24Q289.88-12.12 288.72-10.52Q287.56-8.92 285.40-8.08L285.40-8.08ZM279.72-18.16L279.64-9.28L283.80-9.20Q285.80-9.72 286.82-10.96Q287.84-12.20 287.84-14.08L287.84-14.08Q287.84-18 283.24-18.24L283.24-18.24L279.72-18.16Z M308.09-19.96Q312.57-19.96 314.97-17.52Q317.37-15.08 317.37-10.56L317.37-10.56Q317.37-5.36 314.83-2.60Q312.29 0.16 307.53 0.16L307.53 0.16Q306.25 0.16 304.33 0.12Q302.41 0.08 300.81 0L300.81 0L300.89-6L300.81-19.80L308.09-19.96ZM307.77-1.48Q311.45-1.48 313.41-3.70Q315.37-5.92 315.37-10.20L315.37-10.20Q315.37-14.20 313.49-16.22Q311.61-18.24 307.97-18.24L307.97-18.24Q307.05-18.24 305.57-18.20Q304.09-18.16 302.81-18.08L302.81-18.08L302.73-6.16L302.77-1.64Q305.49-1.48 307.77-1.48L307.77-1.48Z M332.42-19.92Q334.74-19.92 336.90-19L336.90-19L336.58-17.08L336.22-17Q334.22-18.36 332.22-18.36L332.22-18.36Q330.22-18.36 329.04-17.26Q327.86-16.16 327.86-14.80L327.86-14.80Q327.86-13.48 328.92-12.68Q329.98-11.88 332.14-10.96L332.14-10.96Q333.94-10.12 334.98-9.50Q336.02-8.88 336.78-7.86Q337.54-6.84 337.54-5.36L337.54-5.36Q337.54-3.88 336.72-2.62Q335.90-1.36 334.38-0.60Q332.86 0.16 330.86 0.16L330.86 0.16Q329.50 0.16 328.06-0.18Q326.62-0.52 325.42-1.20L325.42-1.20L325.62-3.24L325.90-3.36Q326.94-2.40 328.36-1.90Q329.78-1.40 331.06-1.40L331.06-1.40Q333.06-1.40 334.32-2.50Q335.58-3.60 335.58-5.08L335.58-5.08Q335.58-6.48 334.52-7.30Q333.46-8.12 331.22-9.16L331.22-9.16Q329.50-9.96 328.44-10.58Q327.38-11.20 326.64-12.20Q325.90-13.20 325.90-14.64L325.90-14.64Q325.90-16.12 326.72-17.32Q327.54-18.52 329.02-19.22Q330.50-19.92 332.42-19.92L332.42-19.92Z"/></g>
</svg>
</g></svg>