<?xml version="1.0" standalone="no"?>
<!DOCTYPE svg PUBLIC "-//W3C//DTD SVG 20010904//EN"
 "http://www.w3.org/TR/2001/REC-SVG-20010904/DTD/svg10.dtd">
<svg version="1.0" xmlns="http://www.w3.org/2000/svg"
 width="613.000000pt" height="716.000000pt" viewBox="0 0 613.000000 716.000000"
 preserveAspectRatio="xMidYMid meet">
<metadata>
Created by potrace 1.16, written by Peter Selinger 2001-2019
</metadata>
<g transform="translate(0.000000,716.000000) scale(0.100000,-0.100000)"
fill="#000000" stroke="none">
<path d="M5535 6940 c-77 -15 -171 -52 -283 -111 -139 -73 -163 -74 -324 -22
-101 32 -126 36 -233 39 l-120 2 113 -8 c91 -6 123 -13 160 -33 26 -13 46 -30
44 -36 -1 -7 2 -10 7 -7 5 3 33 -5 62 -19 30 -14 43 -23 29 -20 -22 5 -23 4
-7 -5 10 -7 25 -9 33 -6 9 3 12 2 9 -5 -4 -6 2 -13 14 -16 12 -3 21 -9 21 -14
0 -14 17 -10 52 12 28 18 29 20 8 14 -14 -3 9 12 50 35 41 23 112 64 157 91
139 84 188 102 273 103 62 1 85 -4 130 -26 55 -27 137 -99 96 -84 -19 7 -19 6
-1 -14 10 -11 15 -20 10 -20 -4 0 -3 -6 2 -12 15 -19 2 -141 -18 -179 -5 -9
-9 -30 -9 -45 0 -16 -1 -301 -1 -633 0 -486 -3 -610 -14 -630 -36 -68 -144
-141 -211 -141 -17 0 -53 7 -80 15 -27 9 -105 20 -174 25 -69 5 -141 13 -160
19 -19 5 -91 12 -160 14 -73 4 -143 12 -168 21 -23 8 -70 20 -104 26 -34 6
-93 27 -131 46 -67 34 -132 59 -285 110 -85 28 -173 31 -277 9 -38 -8 -102
-15 -142 -15 -65 0 -80 -4 -150 -40 -105 -55 -123 -76 -123 -146 0 -29 9 -80
20 -111 59 -172 82 -438 47 -549 -8 -27 -18 -65 -21 -84 -19 -112 -130 -250
-250 -310 -52 -27 -70 -30 -147 -30 -85 0 -89 -1 -106 -27 -14 -21 -18 -50
-20 -133 0 -58 2 -123 6 -145 6 -38 9 -41 71 -65 63 -25 91 -48 260 -212 24
-24 40 -49 45 -75 10 -54 6 -149 -8 -212 -10 -42 -10 -73 -1 -145 12 -94 12
-158 -1 -236 -5 -35 -2 -56 14 -93 12 -27 21 -61 21 -75 0 -54 -95 -218 -190
-326 -22 -26 -40 -53 -40 -59 0 -7 29 -56 65 -111 36 -54 70 -117 76 -140 6
-22 19 -68 29 -101 18 -60 18 -72 5 -280 -5 -87 -25 -180 -61 -290 -13 -38
-30 -113 -39 -165 -9 -52 -24 -112 -33 -134 -9 -22 -62 -85 -127 -150 -90 -92
-129 -123 -215 -172 -114 -66 -155 -84 -270 -120 -68 -22 -93 -24 -270 -24
-162 0 -212 -3 -298 -22 -100 -21 -105 -21 -175 -5 -40 10 -115 21 -167 27
-109 11 -152 24 -230 70 -30 18 -88 45 -127 60 -40 16 -87 40 -105 55 -17 15
-59 40 -92 55 -104 49 -173 113 -254 235 -40 60 -79 132 -87 159 -20 67 -20
254 0 326 22 78 23 83 31 137 13 88 90 207 233 360 47 51 120 128 161 173 47
50 75 88 75 103 l0 22 -237 3 -238 2 -152 -41 c-84 -23 -171 -45 -193 -50 -22
-4 -76 -17 -119 -28 -91 -24 -211 -27 -259 -7 -43 17 -91 74 -109 127 -8 24
-25 73 -37 109 -35 101 -38 130 -28 215 7 55 6 103 -1 155 -7 41 -14 125 -18
185 -3 61 -8 121 -10 135 -8 47 -6 135 4 160 5 14 10 28 11 33 0 4 1 8 2 10 8
29 7 47 -3 41 -23 -15 31 53 77 95 61 56 158 101 243 112 37 4 146 8 242 9
145 0 185 3 230 19 74 25 123 34 115 20 -12 -18 56 -6 170 29 39 12 119 36
180 53 69 20 123 41 145 59 19 15 62 42 95 61 59 33 227 160 253 192 30 36 8
38 -251 31 l-252 -7 -62 25 c-33 14 -75 36 -91 49 -42 34 -81 107 -82 154 -1
134 13 341 30 415 10 47 26 130 35 185 9 55 21 129 28 165 6 36 11 126 12 200
1 137 10 205 47 340 11 41 21 79 22 85 0 5 10 17 21 27 11 9 16 17 11 18 -5 0
-1 10 10 22 19 22 19 22 0 8 -38 -29 0 24 49 69 59 54 173 109 256 122 35 5
91 15 124 21 165 29 241 37 357 37 l127 1 46 40 c26 22 59 46 73 54 72 37 262
48 343 21 24 -8 64 -34 89 -56 25 -23 36 -35 25 -28 -19 14 -19 14 0 -12 11
-15 23 -25 27 -23 4 2 9 0 13 -5 3 -6 17 -6 36 1 19 6 93 9 197 6 163 -5 170
-6 267 -42 105 -39 154 -65 176 -93 9 -10 9 -14 2 -10 -7 4 3 -15 22 -44 19
-28 35 -55 35 -60 0 -16 20 -9 45 15 13 13 25 23 27 21 2 -1 12 6 23 17 20 19
20 19 0 13 -11 -3 -8 1 8 10 15 9 32 13 37 10 6 -4 9 -1 8 7 -2 8 6 13 19 12
12 0 20 3 17 7 -2 5 4 13 15 18 26 14 34 14 25 -1 -4 -8 -3 -10 2 -5 5 5 9 14
9 19 0 6 6 13 14 16 9 3 11 0 6 -9 -5 -8 -4 -11 1 -6 5 5 9 12 9 17 0 4 22 24
49 44 26 21 45 33 41 27 -11 -19 11 -12 30 9 10 11 21 17 25 15 4 -3 13 2 20
10 7 8 20 15 29 16 9 0 45 14 81 32 62 31 65 34 93 102 16 39 33 88 39 110 23
95 53 190 60 193 5 2 8 9 8 17 0 7 7 18 15 25 9 7 13 15 11 18 -3 2 7 21 22
41 26 36 26 36 2 16 -14 -11 -7 0 15 24 43 46 147 124 186 140 13 5 19 10 13
10 -6 1 -54 -19 -105 -43 -215 -99 -365 -261 -494 -530 -65 -133 -99 -176
-200 -245 -115 -80 -127 -81 -243 -27 -127 59 -223 83 -408 101 -135 13 -161
19 -249 54 -150 62 -214 74 -352 69 -112 -4 -124 -7 -234 -51 -139 -55 -168
-62 -322 -77 -409 -40 -621 -116 -792 -285 -195 -193 -277 -389 -320 -765 -9
-80 -32 -244 -50 -365 -40 -255 -57 -477 -44 -591 11 -102 14 -112 61 -216 22
-49 38 -98 36 -110 -5 -39 -46 -48 -240 -58 -101 -5 -212 -14 -248 -20 -73
-12 -215 -77 -300 -137 l-55 -39 0 -860 0 -859 62 -42 c34 -23 88 -51 120 -63
80 -31 219 -37 341 -16 130 23 160 21 167 -6 3 -13 -8 -70 -24 -128 -45 -160
-61 -261 -61 -384 0 -131 16 -215 64 -331 106 -262 309 -454 674 -639 268
-135 432 -176 706 -176 266 1 585 17 671 35 345 71 735 359 930 686 64 108 94
200 145 444 70 329 67 529 -10 779 -36 119 -37 144 -4 221 69 163 84 206 93
265 15 92 -12 763 -33 843 -20 73 -58 147 -111 217 -60 80 -85 124 -85 152 0
17 28 53 96 124 163 168 231 283 281 473 24 87 26 115 27 303 1 248 -1 243
104 242 52 0 94 -10 187 -43 394 -140 376 -136 790 -181 506 -56 576 -39 809
198 97 99 113 120 157 205 l29 57 -2 788 -3 787 -34 63 c-38 71 -156 189 -222
223 -51 25 -220 69 -263 68 -17 -1 -49 -5 -71 -9z"/>
<path d="M5544 6694 c-2 -8 -6 -21 -9 -30 -4 -12 -12 -14 -30 -10 -19 5 -27 2
-32 -11 -4 -10 -12 -22 -20 -26 -7 -4 -13 -14 -13 -21 0 -15 -21 -26 -51 -26
-12 0 -23 -10 -29 -26 -8 -20 -15 -25 -31 -21 -30 8 -49 -2 -49 -25 0 -15 -6
-19 -27 -18 -46 3 -51 1 -55 -22 -2 -18 -10 -23 -33 -23 -32 0 -47 -27 -26
-48 6 -6 11 -19 11 -29 0 -13 8 -18 25 -18 18 0 25 5 25 19 0 25 22 42 40 31
18 -11 40 6 40 30 0 21 20 31 49 23 14 -4 23 0 28 13 9 26 24 34 50 28 18 -5
25 0 33 21 6 16 17 26 27 24 39 -3 52 2 55 24 2 17 9 21 30 19 21 -2 29 4 42
29 9 18 16 38 16 44 0 7 7 16 16 19 8 3 14 14 12 23 -4 23 -87 29 -94 7z"/>
<path d="M4815 6252 c-3 -3 -5 -13 -5 -23 0 -9 -7 -19 -15 -23 -8 -3 -15 -12
-15 -21 0 -18 5 -17 -90 -20 -94 -3 -87 -2 -93 -25 -3 -14 -13 -19 -33 -19
-16 0 -40 -2 -54 -5 -14 -2 -28 -5 -32 -5 -5 -1 -8 -7 -8 -15 0 -7 -6 -18 -13
-25 -16 -13 -37 4 -37 30 0 21 -24 31 -39 16 -14 -14 -14 -37 -1 -37 6 0 10
-14 10 -30 0 -29 -2 -31 -37 -28 -31 2 -38 -1 -41 -17 -6 -26 -22 -35 -49 -29
-18 5 -25 0 -33 -21 -8 -21 -15 -26 -33 -21 -26 6 -41 -2 -50 -26 -4 -11 -17
-18 -32 -18 -18 0 -28 -7 -35 -26 -8 -21 -15 -25 -42 -22 -28 2 -34 -1 -36
-19 -2 -13 -10 -23 -17 -23 -7 0 -15 -10 -17 -22 -2 -19 -9 -22 -31 -20 -21 2
-29 -3 -36 -21 -10 -27 -37 -42 -46 -27 -4 6 -14 6 -26 -1 -15 -7 -24 -7 -35
2 -11 9 -15 6 -20 -19 -7 -32 -31 -49 -47 -33 -13 13 -37 3 -37 -15 0 -8 6
-23 13 -34 10 -17 9 -22 -2 -29 -19 -12 -38 -4 -44 20 -7 26 -47 26 -47 0 0
-20 -22 -33 -42 -26 -16 6 -29 -4 -44 -30 -9 -16 -21 -20 -63 -18 -47 1 -53
-1 -61 -23 -8 -20 -16 -24 -42 -22 -28 3 -34 -1 -36 -19 -3 -19 -10 -23 -38
-23 -24 0 -37 -5 -41 -17 -11 -33 -25 -44 -38 -33 -17 14 -45 2 -45 -20 0 -21
-23 -33 -38 -18 -6 6 -16 7 -24 2 -7 -5 -24 -9 -38 -9 -17 0 -26 -6 -28 -20
-6 -26 -22 -35 -50 -28 -18 4 -24 1 -29 -16 -3 -11 -10 -21 -17 -22 -6 -1 -22
-2 -36 -2 -18 -2 -26 -9 -28 -25 -3 -17 -10 -23 -25 -22 -45 4 -57 0 -57 -20
0 -10 -6 -23 -12 -27 -17 -10 -38 -49 -38 -67 0 -23 -20 -30 -38 -12 -14 13
-14 19 -2 41 10 18 11 28 3 36 -15 15 -33 3 -33 -21 0 -18 -7 -20 -62 -17 -59
2 -62 1 -68 -23 -5 -21 -12 -25 -38 -22 -27 2 -34 -2 -42 -24 -7 -18 -17 -25
-33 -24 -44 4 -57 0 -57 -18 0 -26 -11 -34 -27 -21 -15 13 -43 -4 -43 -27 0
-8 -6 -15 -12 -15 -7 -1 -20 -3 -28 -4 -8 -1 -21 -3 -27 -4 -7 0 -13 -10 -13
-21 0 -11 -6 -20 -12 -21 -7 -1 -24 -2 -38 -2 -15 -1 -26 -9 -28 -21 -5 -24
17 -37 40 -25 9 5 21 9 25 8 21 -3 33 2 33 15 0 16 34 31 50 21 15 -9 12 -32
-4 -38 -8 -3 -16 -16 -18 -29 -3 -21 -7 -23 -61 -21 -53 2 -59 0 -67 -22 -10
-26 -17 -29 -44 -19 -20 8 -21 30 -1 38 18 7 20 56 3 56 -21 0 -35 -14 -40
-35 -2 -15 -11 -20 -33 -20 -23 0 -31 -5 -33 -22 -2 -13 -7 -23 -12 -23 -10 0
-40 -57 -40 -77 0 -7 5 -13 10 -13 6 0 10 -9 10 -20 0 -21 5 -23 60 -21 19 1
46 2 60 1 17 0 29 8 35 23 8 16 17 21 38 19 22 -2 30 2 34 17 6 24 3 23 73 26
45 1 56 5 59 21 5 26 20 34 53 27 23 -4 28 -2 28 14 0 10 -5 24 -11 30 -15 15
-4 43 16 43 8 0 20 -11 25 -25 5 -14 13 -25 17 -25 16 0 31 16 35 35 3 17 11
20 61 20 51 0 59 3 71 25 13 25 18 27 48 15 11 -5 18 0 23 16 5 14 3 25 -4 27
-6 2 -11 15 -11 28 0 17 6 24 20 24 11 0 20 -7 20 -15 0 -8 9 -19 20 -25 17
-9 22 -7 29 14 11 28 29 37 54 24 22 -12 35 17 19 43 -16 26 -15 46 3 53 8 3
15 12 15 21 0 17 -1 16 53 19 32 2 40 -1 48 -21 4 -12 16 -23 24 -23 23 0 31
31 12 42 -21 11 -22 34 -1 42 27 10 34 7 44 -20 7 -16 16 -24 28 -22 19 4 30
48 12 48 -6 0 -10 10 -8 23 2 14 10 22 23 22 13 0 21 -8 23 -22 5 -31 52 -33
52 -3 0 11 6 23 14 26 8 3 16 15 19 26 5 16 11 19 28 15 28 -7 49 8 49 35 0
16 5 19 22 15 26 -7 58 8 58 29 0 9 10 14 30 14 17 0 44 0 60 0 23 0 30 4 30
19 0 10 7 24 15 31 8 7 15 19 15 26 0 8 5 14 10 14 6 0 15 11 20 25 12 32 38
32 50 -1 12 -31 44 -29 48 4 3 19 9 22 40 20 31 -3 36 0 42 22 4 18 13 25 31
26 44 2 49 4 49 19 0 7 -7 18 -16 23 -18 10 -15 48 4 46 6 -1 28 -2 47 -2 24
-2 38 -8 42 -19 8 -23 23 -32 40 -26 18 7 17 32 -2 39 -8 4 -15 14 -15 24 0
10 7 23 15 30 8 7 15 19 15 26 0 15 4 16 74 16 39 0 49 4 53 19 6 23 4 22 127
23 82 1 101 4 110 18 14 22 3 31 -34 30 -34 -1 -51 21 -31 41 6 6 11 19 11 28
0 35 54 34 63 -2 7 -25 37 -25 37 0 0 11 8 22 18 24 14 3 95 2 140 -2 6 0 12
-10 12 -21 0 -11 5 -20 10 -20 6 0 10 -9 10 -20 0 -11 7 -23 15 -26 8 -4 15
-15 15 -25 0 -14 7 -19 25 -19 18 0 25 5 25 19 0 10 -7 21 -15 25 -8 3 -15 12
-15 21 0 19 -21 57 -37 68 -18 11 -16 36 2 43 8 4 15 13 15 20 0 8 -7 17 -15
20 -8 4 -15 14 -15 23 0 25 20 41 39 32 9 -4 32 -7 51 -7 26 1 37 7 47 26 7
14 19 23 25 21 7 -2 26 -3 41 -2 21 1 30 -4 34 -18 3 -11 11 -22 19 -25 18 -7
18 -30 -1 -46 -22 -18 -18 -40 6 -40 12 0 23 8 26 20 3 11 9 20 14 20 5 0 9
11 9 25 0 14 -4 25 -10 25 -5 0 -10 11 -10 25 0 14 -4 25 -10 25 -5 0 -10 7
-10 15 0 8 9 15 21 15 11 0 29 5 39 10 13 7 21 7 25 0 3 -6 17 -7 31 -4 21 5
24 3 24 -20 0 -14 -4 -26 -10 -26 -16 0 -12 -30 5 -36 8 -4 15 -12 15 -20 0
-8 6 -23 12 -34 10 -16 10 -24 0 -40 -6 -11 -12 -26 -12 -34 0 -20 -18 -30
-33 -18 -14 10 -83 9 -94 -2 -10 -9 12 -42 26 -39 6 2 34 4 63 5 39 2 52 7 56
20 2 10 8 18 13 18 5 0 14 11 19 25 12 31 50 35 50 6 0 -20 32 -37 50 -26 15
9 12 35 -5 41 -8 4 -15 15 -15 25 0 11 -7 19 -17 20 -10 1 -22 2 -28 4 -5 1
-16 3 -22 3 -7 1 -13 7 -13 14 0 6 -8 20 -17 31 -17 18 -17 19 0 32 9 6 17 19
17 28 0 9 4 19 10 22 18 11 43 76 33 86 -13 13 -43 1 -43 -17 0 -8 -10 -14
-25 -14 -18 0 -25 5 -25 20 0 10 -6 23 -13 27 -8 4 -16 15 -19 24 -5 11 -19
16 -47 16 -22 0 -43 -2 -46 -5z"/>
<path d="M2387 5934 c-4 -4 -7 -15 -7 -25 0 -9 -7 -19 -15 -23 -8 -3 -15 -15
-15 -26 0 -11 -7 -20 -15 -20 -8 0 -15 -9 -15 -20 0 -11 -4 -20 -10 -20 -5 0
-10 -9 -10 -19 0 -20 32 -37 50 -26 6 3 13 -2 17 -12 3 -10 13 -26 22 -36 12
-15 13 -22 3 -37 -20 -32 -15 -53 10 -47 25 7 58 -8 58 -27 0 -8 6 -16 13 -18
19 -7 37 2 37 19 0 8 11 29 25 47 14 18 25 39 25 46 0 7 8 18 17 25 15 11 15
15 4 29 -8 9 -25 15 -40 14 -20 -2 -27 2 -29 20 -2 12 1 22 7 22 6 0 11 9 11
20 0 11 7 23 15 26 21 8 19 31 -4 43 -21 12 -31 5 -31 -21 0 -13 -7 -18 -25
-18 -15 0 -25 6 -25 14 0 8 -6 16 -14 19 -8 3 -16 16 -18 29 -3 22 -27 35 -41
22z"/>
<path d="M4093 5713 c-19 -7 -16 -34 5 -49 25 -19 4 -49 -34 -49 -22 0 -29 -5
-29 -20 0 -16 7 -20 35 -21 19 0 41 4 48 9 7 6 17 6 25 0 13 -10 183 -10 193
0 4 3 4 14 0 23 -4 11 -14 15 -31 11 -14 -2 -28 0 -31 4 -3 5 -13 5 -23 -1
-12 -6 -22 -5 -29 2 -8 8 -15 8 -27 -2 -18 -15 -45 2 -45 30 0 10 -7 20 -15
24 -8 3 -15 12 -15 20 0 18 -10 25 -27 19z"/>
<path d="M2863 4393 c-7 -3 -13 -11 -13 -18 0 -14 -37 -31 -47 -21 -4 3 -13 1
-20 -6 -11 -9 -17 -9 -23 3 -8 11 -13 12 -28 2 -14 -8 -22 -9 -30 -1 -8 8 -15
8 -25 0 -10 -9 -16 -9 -25 0 -8 8 -15 8 -25 0 -8 -7 -17 -9 -20 -5 -9 8 -346
10 -359 2 -6 -4 -8 -14 -5 -24 6 -14 22 -16 109 -14 113 2 134 -3 141 -32 6
-22 37 -16 37 7 0 15 36 38 43 27 6 -10 220 -9 236 1 6 4 18 3 25 -3 8 -7 16
-7 23 0 14 14 43 0 43 -22 0 -10 5 -19 10 -19 6 0 10 -8 10 -17 0 -9 8 -25 17
-35 14 -16 15 -22 5 -36 -7 -9 -15 -25 -18 -34 -4 -10 -10 -18 -15 -18 -12 0
-11 -37 1 -45 6 -3 10 -15 10 -26 0 -11 7 -22 15 -25 8 -4 15 -13 15 -20 0 -8
-7 -17 -15 -20 -8 -4 -15 -15 -15 -25 0 -11 7 -22 15 -25 17 -7 21 -44 5 -44
-5 0 -10 -9 -10 -19 0 -10 -7 -21 -15 -25 -16 -6 -21 -46 -5 -46 5 0 17 -16
26 -36 16 -34 16 -37 1 -49 -21 -15 -22 -44 -2 -51 8 -4 15 -13 15 -20 0 -8
-7 -17 -15 -20 -8 -4 -15 -14 -15 -23 0 -26 -10 -32 -33 -19 -16 8 -23 7 -34
-8 -7 -10 -11 -24 -9 -30 6 -16 -17 -25 -34 -14 -19 12 -40 1 -50 -25 -7 -18
-14 -21 -39 -17 -26 4 -31 1 -31 -16 0 -12 -4 -24 -10 -27 -14 -9 -12 -53 3
-58 9 -3 9 -9 -2 -30 -7 -14 -11 -33 -8 -41 9 -22 37 -20 37 3 0 10 7 21 15
25 8 3 15 15 15 26 0 11 -7 23 -15 26 -8 4 -15 15 -15 25 0 19 5 21 60 21 48
0 50 -1 50 -21 0 -22 29 -36 44 -21 7 7 7 16 -2 30 -14 23 -16 60 -3 60 5 0
11 10 14 21 5 17 12 20 31 17 28 -6 36 -1 52 27 9 16 22 20 60 21 109 2 114 3
114 24 0 18 -7 20 -61 20 -52 0 -62 3 -66 20 -3 11 -9 20 -14 20 -13 0 -11 37
4 61 10 17 9 22 -7 34 -18 14 -17 24 6 57 10 14 9 21 -6 37 -18 20 -19 22 -1
41 16 18 17 23 5 45 -11 20 -11 29 -1 49 10 19 10 27 0 44 -11 17 -11 25 1 47
13 24 13 28 -3 40 -21 15 -21 24 0 47 14 16 15 21 3 44 -11 20 -12 29 -2 44 7
11 12 27 12 35 0 18 -4 17 135 19 61 1 115 -2 122 -6 6 -5 14 -5 17 1 4 6 30
8 61 5 45 -4 56 -2 61 11 10 25 -12 42 -36 27 -10 -6 -21 -8 -24 -3 -3 4 -42
7 -86 5 -76 -3 -81 -1 -89 20 -8 18 -16 22 -52 21 -32 -1 -44 -6 -49 -20 -10
-29 -100 -31 -107 -4 -3 11 -8 19 -12 20 -52 5 -68 5 -78 2z"/>
<path d="M2039 4344 c-11 -14 -10 -18 6 -30 12 -9 22 -10 30 -4 18 15 45 1 45
-21 0 -11 -7 -22 -15 -25 -8 -4 -15 -13 -15 -20 0 -8 7 -17 15 -20 8 -4 15
-15 15 -25 0 -11 -7 -22 -15 -25 -8 -4 -15 -14 -15 -24 0 -10 7 -20 15 -24 19
-7 19 -32 1 -43 -8 -4 -15 -17 -18 -28 -2 -13 -12 -20 -28 -21 -45 -2 -50 -4
-50 -17 0 -22 -22 -38 -36 -26 -18 15 -34 2 -34 -27 0 -26 7 -29 29 -15 9 6
22 6 32 0 11 -6 20 -5 24 1 9 14 35 0 35 -20 0 -22 39 -34 47 -14 3 7 -2 21
-11 29 -37 38 -11 51 99 49 83 0 90 -2 93 -22 3 -16 -3 -21 -25 -24 -19 -2
-32 -12 -41 -30 -11 -23 -17 -26 -41 -22 -33 7 -49 -10 -31 -31 9 -11 17 -12
33 -3 15 8 22 8 25 0 5 -17 32 -2 32 18 0 11 5 22 10 25 17 11 50 -5 50 -25 0
-10 7 -20 15 -24 8 -3 15 -12 15 -21 0 -9 -7 -18 -15 -21 -17 -7 -21 -44 -5
-44 6 0 10 -11 10 -25 0 -14 -5 -25 -11 -25 -6 0 -9 -10 -7 -22 4 -31 48 -39
48 -9 0 11 5 23 10 26 13 8 13 55 -1 55 -6 0 -9 10 -7 23 2 17 10 22 36 23 18
1 35 4 38 7 8 7 -22 73 -36 82 -6 3 -10 15 -10 26 0 10 -5 19 -10 19 -6 0 -15
11 -20 25 -5 14 -14 25 -20 25 -5 0 -10 7 -10 15 0 8 -6 16 -12 16 -7 1 -17 2
-23 4 -5 1 -27 3 -47 3 -34 2 -39 6 -58 47 -11 25 -25 45 -30 45 -16 0 -11 37
5 44 20 7 19 25 -2 49 -17 18 -17 19 0 32 21 15 22 51 2 59 -8 3 -15 12 -15
20 0 17 -27 29 -35 16 -4 -7 -13 -6 -25 0 -24 13 -25 13 -41 -6z"/>
<path d="M2366 3648 c-18 -36 -20 -58 -6 -58 6 0 15 -10 20 -22 6 -13 19 -36
29 -53 35 -54 28 -70 -27 -65 -16 1 -25 -5 -29 -19 -3 -12 -8 -21 -12 -22 -34
-4 -183 -4 -190 1 -4 3 -11 12 -15 20 -12 26 -31 57 -46 75 -12 15 -12 19 3
30 9 7 17 19 17 27 0 9 7 21 15 28 18 15 20 40 3 41 -77 5 -83 4 -86 -18 -2
-12 -10 -27 -18 -33 -8 -7 -14 -18 -14 -25 0 -27 -30 -24 -50 5 -13 18 -26 27
-35 23 -17 -6 -21 -43 -5 -43 6 0 15 -11 20 -25 8 -20 14 -24 27 -17 24 12 43
4 43 -18 0 -24 22 -41 40 -30 17 10 40 -5 40 -27 0 -7 -7 -16 -15 -19 -8 -4
-15 -15 -15 -25 0 -11 -7 -22 -15 -25 -8 -4 -15 -15 -15 -25 0 -10 -4 -19 -10
-19 -16 0 -12 -22 6 -35 16 -11 16 -14 0 -45 -9 -18 -16 -39 -16 -47 0 -7 -4
-13 -10 -13 -5 0 -10 -7 -10 -15 0 -8 5 -15 10 -15 14 0 12 -36 -2 -60 -10
-16 -10 -24 0 -41 10 -15 11 -24 3 -32 -6 -6 -11 -21 -11 -34 0 -13 -4 -23
-10 -23 -5 0 -10 -11 -10 -25 0 -14 5 -25 10 -25 16 0 12 -30 -5 -36 -20 -8
-19 -44 3 -60 13 -11 14 -15 4 -22 -31 -21 -57 -112 -32 -112 6 0 10 -7 10
-15 0 -8 -4 -15 -10 -15 -5 0 -10 -11 -10 -25 0 -14 -4 -25 -10 -25 -5 0 -19
-21 -31 -47 -32 -71 -89 -116 -89 -71 0 16 -32 37 -47 31 -18 -7 -16 -40 2
-47 8 -3 15 -15 15 -26 0 -11 4 -20 9 -20 11 0 41 -56 41 -77 0 -7 -5 -13 -10
-13 -6 0 -15 -11 -20 -25 -8 -21 -15 -25 -42 -23 -28 3 -34 -1 -36 -19 -3 -23
-8 -24 -91 -27 -15 -1 -27 -9 -32 -24 -7 -18 -16 -23 -36 -22 -46 3 -53 1 -54
-17 0 -10 -9 -31 -20 -48 -11 -16 -22 -38 -25 -47 -4 -10 -11 -19 -18 -20 -6
0 -15 -2 -21 -3 -5 -2 -18 -3 -27 -4 -10 0 -18 -7 -18 -14 0 -21 -30 -77 -41
-77 -5 0 -9 -9 -9 -20 0 -11 -7 -20 -15 -20 -8 0 -15 -9 -15 -19 0 -11 -4 -23
-10 -26 -5 -3 -10 -15 -10 -26 0 -10 -4 -19 -10 -19 -5 0 -10 -9 -10 -20 0
-11 -7 -23 -15 -26 -8 -4 -15 -15 -15 -25 0 -10 -4 -19 -10 -19 -13 0 -13 -37
0 -45 6 -3 10 -15 10 -26 0 -10 7 -19 15 -19 20 0 19 -36 -1 -44 -26 -10 -34
-7 -34 13 0 24 -22 42 -38 32 -29 -17 -54 -91 -32 -91 6 0 10 -9 10 -20 0 -11
7 -23 15 -26 8 -4 15 -13 15 -20 0 -8 -7 -17 -15 -20 -8 -4 -15 -12 -15 -20 0
-8 -6 -23 -12 -34 -10 -16 -10 -24 0 -41 11 -17 11 -27 1 -51 -14 -35 -3 -48
37 -40 19 3 24 0 24 -16 0 -12 -4 -24 -10 -27 -14 -9 -12 -35 3 -39 6 -3 24
-7 40 -10 15 -4 27 -12 27 -18 0 -6 6 -19 14 -27 8 -9 18 -32 23 -51 8 -31 13
-35 43 -35 25 0 35 -5 41 -23 7 -17 16 -22 41 -22 72 1 79 -1 85 -18 10 -25
34 -40 55 -34 11 3 20 -3 25 -14 9 -27 23 -33 55 -27 23 5 28 2 28 -15 0 -21
18 -32 55 -32 17 0 25 -6 27 -23 3 -20 8 -22 62 -22 50 0 60 -3 66 -20 7 -19
18 -19 314 -20 306 -1 308 -1 316 20 8 20 14 21 116 20 95 -1 107 1 112 17 2
10 9 19 16 19 19 3 50 6 79 7 20 2 30 9 37 28 8 20 15 25 33 20 26 -6 41 2 50
27 3 9 17 17 29 17 44 0 53 14 35 53 -9 19 -23 37 -31 40 -16 6 -36 -11 -36
-30 0 -13 -5 -15 -50 -17 -16 -1 -26 -8 -28 -21 -5 -25 -22 -36 -44 -29 -13 4
-21 -2 -28 -20 -10 -26 -34 -34 -45 -16 -5 8 -11 7 -21 -1 -10 -8 -18 -9 -27
0 -8 6 -17 7 -21 3 -4 -4 -31 -7 -59 -8 -105 -2 -117 -4 -117 -18 0 -17 -26
-27 -72 -27 -110 1 -143 2 -241 4 -60 2 -110 0 -113 -4 -2 -4 -35 -5 -72 -2
-37 3 -91 6 -120 5 -48 -1 -54 1 -63 24 -7 20 -14 25 -32 20 -26 -6 -41 2 -50
27 -4 11 -15 17 -29 16 -65 -6 -98 1 -98 20 0 26 23 44 38 29 9 -9 15 -9 24 0
7 7 17 8 28 2 25 -14 48 14 30 35 -9 11 -26 14 -62 10 -43 -4 -50 -2 -58 18
-6 12 -16 30 -22 40 -20 28 0 33 118 31 85 -1 107 2 111 13 8 20 -16 34 -44
27 -18 -5 -25 0 -33 20 -12 33 -38 33 -50 0 -13 -32 -42 -29 -50 6 -6 24 -8
25 -99 25 -107 1 -120 -4 -104 -37 6 -13 14 -31 17 -42 4 -13 13 -17 27 -13
27 7 49 -1 49 -19 0 -8 7 -17 15 -20 8 -4 15 -13 15 -21 0 -9 8 -22 18 -29 13
-10 15 -17 6 -31 -15 -24 -48 -23 -52 2 -3 11 -10 24 -18 28 -8 4 -14 14 -14
22 0 21 -19 28 -35 15 -11 -9 -15 -9 -15 -1 0 6 -12 10 -28 9 -15 -1 -33 1
-40 6 -14 9 -16 36 -2 36 6 0 10 12 10 26 0 22 -4 25 -21 21 -42 -11 -66 22
-38 50 18 18 3 43 -23 40 -17 -1 -24 4 -26 21 -4 26 -32 44 -52 32 -18 -11
-30 -4 -30 20 0 15 8 18 52 17 47 -1 54 1 65 23 7 14 17 25 23 24 27 -3 30 -5
30 -23 0 -11 -5 -21 -11 -23 -16 -5 -1 -48 16 -48 14 0 45 53 45 75 0 7 -7 15
-15 19 -8 3 -15 12 -15 19 0 20 -26 41 -35 27 -12 -20 -34 -10 -37 18 -3 23
-8 27 -35 27 -38 1 -48 8 -40 30 4 9 19 15 38 15 22 0 32 5 36 20 3 11 9 20
14 20 5 0 9 9 9 20 0 11 7 23 15 26 17 7 19 32 6 53 -7 11 -13 12 -24 3 -10
-9 -18 -8 -33 3 -18 14 -18 16 -1 29 9 7 17 18 17 25 0 6 7 14 15 17 8 4 15
16 15 28 0 12 6 28 12 34 10 10 10 17 0 32 -15 24 -16 50 -2 50 6 0 10 9 10
19 0 20 32 37 50 26 15 -9 12 -45 -5 -51 -17 -7 -20 -30 -6 -38 16 -10 41 5
41 24 0 10 7 20 15 24 8 3 15 12 15 21 0 8 5 15 10 15 6 0 10 9 10 20 0 11 7
23 15 26 20 8 19 33 -2 57 -17 18 -17 19 1 33 14 10 23 11 33 3 9 -8 17 -8 26
0 10 8 17 7 25 -1 13 -13 42 6 42 27 0 26 30 25 42 0 6 -14 15 -25 19 -25 10
0 39 -58 39 -77 0 -11 -10 -14 -37 -11 -31 2 -38 -1 -41 -17 -5 -24 -20 -35
-39 -28 -18 7 -17 32 2 39 22 9 18 42 -5 49 -23 7 -40 -1 -40 -20 0 -7 -7 -15
-15 -19 -8 -3 -15 -12 -15 -19 0 -20 -30 -77 -41 -77 -14 0 -11 -38 4 -43 17
-6 47 11 47 27 0 16 19 25 38 19 16 -6 15 -23 -4 -61 -13 -27 -21 -32 -50 -32
-33 0 -48 -20 -24 -35 16 -10 11 -53 -7 -64 -14 -7 -15 -12 -4 -24 14 -18 41
-12 41 9 0 8 7 17 15 20 8 4 15 14 15 24 0 11 4 22 10 25 5 3 17 23 27 43 20
44 30 52 66 52 20 0 27 5 27 20 0 11 7 23 15 26 8 4 15 13 15 20 0 8 7 17 15
20 8 4 15 17 15 30 0 13 4 24 9 24 5 0 11 8 15 18 8 24 29 56 44 65 6 4 12 16
12 26 0 25 10 32 29 21 10 -5 23 -5 31 0 18 11 50 -6 50 -26 0 -8 -7 -17 -16
-21 -8 -3 -20 -16 -25 -30 -7 -19 -14 -22 -34 -17 -31 8 -48 -23 -22 -38 10
-5 17 -20 17 -33 0 -33 27 -33 40 -1 5 13 14 27 19 31 6 3 11 14 11 25 0 37
44 33 51 -5 6 -28 43 -26 47 3 2 15 -2 22 -12 22 -9 0 -16 8 -16 20 0 11 7 20
15 20 20 0 20 46 0 53 -8 4 -17 2 -20 -3 -12 -20 -35 -10 -35 14 0 30 16 42
35 26 8 -6 16 -7 19 -2 3 6 29 8 56 6 45 -3 52 -1 60 19 27 61 46 78 77 71 17
-5 24 -1 29 12 3 11 11 30 17 43 9 19 9 25 0 28 -18 6 -16 42 2 49 20 8 19 23
-2 46 -14 16 -15 23 -5 38 7 11 12 26 12 34 0 8 8 19 18 25 14 8 15 13 5 28
-6 10 -16 17 -22 16 -6 -2 -16 -4 -22 -5 -6 -2 -16 5 -22 15 -10 15 -9 20 6
28 23 13 22 36 -2 49 -28 14 -31 13 -31 -15 0 -13 -6 -28 -13 -32 -6 -4 -18
-20 -26 -35 -12 -23 -12 -32 -1 -52 24 -45 -1 -59 -82 -47 -7 1 -32 51 -40 81
-3 9 -17 15 -34 15 -22 0 -29 5 -29 20 0 18 7 20 55 20 58 0 77 18 45 45 -19
16 -19 39 0 46 8 4 15 14 15 24 0 10 7 20 15 24 20 7 19 36 -2 51 -14 10 -15
16 -5 27 10 13 46 16 95 9 4 -1 7 -10 7 -21 0 -11 5 -20 10 -20 16 0 12 -47
-5 -53 -8 -4 -17 -2 -20 3 -9 15 -35 -1 -35 -21 0 -11 -7 -22 -15 -25 -19 -8
-19 -30 0 -38 21 -8 45 3 45 20 0 8 10 14 23 14 44 0 71 44 62 100 -4 23 -2
41 4 45 6 3 11 15 11 26 0 10 5 19 10 19 6 0 10 9 10 20 0 11 -4 20 -10 20 -5
0 -10 11 -10 25 0 14 5 25 10 25 6 0 10 9 10 20 0 11 -4 20 -10 20 -5 0 -10 9
-10 20 0 25 -27 37 -43 21 -9 -9 -9 -16 1 -31 16 -27 15 -49 -3 -56 -22 -9
-18 -32 6 -39 14 -5 19 -14 17 -28 -4 -30 -51 -31 -56 -2 -3 11 -10 24 -18 28
-18 11 -18 33 1 41 21 8 19 33 -4 45 -20 11 -32 3 -44 -31 -4 -10 -11 -18 -16
-18 -17 0 -24 21 -13 43 6 12 13 30 16 41 5 14 12 17 32 12 21 -6 26 -2 35 23
11 32 37 47 53 31 17 -17 28 -11 24 13 -2 18 -8 21 -35 19 -30 -3 -33 -1 -33
22 0 14 -4 26 -10 26 -8 0 -29 40 -44 84 -4 13 -12 17 -29 12 -28 -7 -52 7
-45 26 5 11 28 14 104 13 84 -1 99 -4 102 -18 2 -9 -4 -20 -12 -23 -9 -3 -16
-12 -16 -20 0 -8 -6 -23 -12 -34 -10 -15 -10 -22 -1 -31 16 -16 43 -4 43 21 0
11 5 20 10 20 6 0 15 11 20 25 8 21 14 24 40 19 26 -6 30 -4 30 15 0 11 -5 21
-11 21 -6 0 -9 12 -7 28 2 21 8 27 28 28 43 2 48 4 54 22 3 9 14 31 25 47 11
17 20 38 20 48 1 9 5 17 10 17 11 0 41 56 41 75 0 16 -23 26 -37 17 -6 -4 -12
-16 -15 -27 -3 -17 -11 -20 -48 -19 -38 1 -45 4 -48 23 -2 11 1 21 7 21 17 0
13 37 -5 44 -26 10 -32 7 -48 -26z"/>
<path d="M482 3447 c-5 -7 -12 -20 -15 -29 -5 -14 -18 -16 -79 -14 -82 4 -98
0 -98 -21 0 -9 -8 -22 -17 -29 -15 -11 -16 -16 -5 -33 17 -30 15 -48 -8 -54
-16 -4 -20 -14 -20 -45 0 -23 4 -44 10 -47 13 -8 13 -45 0 -45 -13 0 -13 -37
0 -45 6 -3 10 -15 10 -26 0 -10 5 -19 10 -19 6 0 10 -6 10 -14 0 -8 8 -22 17
-31 13 -14 14 -21 5 -36 -15 -23 -16 -49 -2 -49 15 0 12 -48 -2 -53 -10 -3
-10 -9 0 -26 15 -26 15 -54 0 -69 -9 -9 -8 -17 2 -37 11 -21 11 -27 -3 -43
-21 -23 -22 -38 -2 -46 8 -3 15 -15 15 -26 0 -11 7 -23 15 -26 17 -7 21 -34 5
-34 -5 0 -10 -8 -10 -17 0 -9 -7 -25 -16 -35 -14 -15 -15 -20 -4 -33 9 -10 17
-12 23 -6 14 14 37 2 37 -20 0 -21 35 -45 45 -29 4 7 13 7 24 0 21 -11 41 5
41 32 0 19 5 21 55 19 130 -4 125 -5 125 18 0 23 19 32 42 20 10 -6 19 -5 23
1 3 6 17 7 30 4 20 -5 27 -1 34 19 l10 25 398 0 c392 -1 398 0 401 20 3 21
-13 23 -172 24 -39 0 -49 4 -53 19 -6 23 3 21 -112 23 -83 2 -95 0 -99 -16 -2
-10 -7 -19 -11 -19 -8 -2 -121 -6 -265 -10 -93 -3 -110 -6 -113 -20 -6 -21
-29 -32 -54 -24 -9 3 -20 1 -24 -5 -5 -8 -11 -8 -21 1 -17 14 -44 -4 -44 -28
0 -12 -7 -14 -30 -10 -16 4 -32 2 -36 -4 -4 -7 -10 -7 -18 0 -6 5 -17 7 -23 3
-6 -4 -40 -7 -75 -7 -61 0 -63 1 -66 28 -2 15 1 27 7 27 6 0 11 7 11 15 0 8
-4 15 -10 15 -5 0 -10 14 -10 30 0 17 5 30 10 30 6 0 10 9 10 20 0 11 7 23 15
26 19 8 19 33 0 40 -8 4 -15 15 -15 25 0 10 -4 19 -10 19 -14 0 -12 34 2 48
10 10 10 17 0 32 -15 24 -16 60 -2 60 16 0 12 37 -5 44 -8 3 -15 14 -15 24 0
10 -6 24 -13 31 -10 10 -9 15 6 25 9 7 17 23 17 35 0 11 5 21 10 21 6 0 10 8
10 19 0 10 7 24 15 31 8 7 15 16 15 21 0 5 -7 9 -15 9 -8 0 -15 4 -15 9 0 4
-11 6 -25 3 -20 -3 -25 0 -25 16 0 11 7 22 15 26 8 3 15 14 15 25 0 10 -7 21
-15 25 -30 11 -15 43 19 37 18 -4 45 11 48 26 3 17 20 20 158 26 50 2 66 6 68
19 3 18 39 31 47 18 3 -5 20 -6 38 -3 17 3 69 6 114 7 87 2 99 6 90 29 -4 12
-27 14 -112 13 -58 -1 -109 2 -111 6 -3 5 -11 5 -17 1 -18 -11 -137 -11 -144
0 -3 5 -9 3 -14 -4 -7 -11 -12 -12 -28 -2 -15 9 -21 9 -29 0z"/>
<path d="M3300 3250 c0 -11 -7 -23 -15 -26 -8 -4 -15 -13 -15 -20 0 -8 -7 -17
-15 -20 -8 -4 -15 -14 -15 -24 0 -11 -5 -22 -11 -25 -5 -4 -14 -18 -19 -31 -8
-20 -14 -23 -35 -18 -19 5 -27 2 -32 -12 -9 -26 -23 -34 -56 -34 -20 0 -30 -6
-34 -20 -5 -19 -12 -21 -81 -21 -26 0 -35 -5 -42 -24 -8 -21 -15 -24 -57 -22
-41 2 -48 5 -51 25 -2 12 1 22 7 22 6 0 11 9 11 20 0 11 -4 20 -10 20 -5 0
-10 9 -10 19 0 11 -5 23 -11 26 -5 4 -14 18 -20 32 -5 14 -16 24 -26 22 -33
-3 -41 1 -46 21 -3 12 -14 20 -26 20 -14 0 -21 -6 -21 -20 0 -11 -4 -20 -9
-20 -11 0 -41 -57 -41 -78 0 -8 -8 -21 -17 -28 -17 -13 -17 -15 0 -28 21 -17
22 -34 1 -57 -9 -10 -13 -23 -9 -28 11 -19 35 -12 45 14 5 14 14 25 20 25 16
0 12 27 -5 34 -8 3 -15 15 -15 26 0 11 7 23 15 26 8 4 15 14 15 24 0 25 18 35
35 20 11 -9 18 -10 29 -1 15 12 22 6 45 -41 12 -23 11 -32 -3 -62 -9 -20 -21
-36 -26 -36 -5 0 -10 -10 -12 -22 -2 -19 -8 -22 -35 -20 -29 3 -33 0 -33 -21
0 -26 25 -44 35 -26 4 5 12 6 18 2 6 -4 24 -6 39 -5 33 3 36 -17 9 -63 -14
-23 -24 -29 -44 -27 -17 2 -27 -1 -27 -9 0 -7 -7 -21 -17 -31 -13 -14 -14 -23
-6 -41 6 -12 14 -30 17 -40 8 -25 40 -17 44 11 2 12 8 22 13 22 5 0 9 9 9 20
0 11 7 23 15 26 8 4 15 13 15 20 0 8 7 17 15 20 8 4 15 14 15 25 0 10 6 22 14
26 8 4 16 17 18 28 3 15 10 19 31 17 19 -2 29 3 34 15 10 27 33 40 59 35 19
-3 24 0 24 16 0 24 17 32 52 25 22 -4 27 -1 30 18 2 19 9 24 33 24 36 1 55 11
55 31 0 8 6 15 13 15 6 1 17 2 22 4 6 1 16 3 23 3 6 1 12 9 12 17 0 7 6 18 14
22 8 4 15 17 18 28 2 14 11 20 31 20 38 1 57 22 35 39 -23 17 -23 42 -1 55 14
8 15 12 4 25 -19 22 -41 20 -41 -4z"/>
<path d="M3300 2979 c0 -12 8 -28 17 -34 17 -13 17 -14 0 -32 -9 -11 -17 -25
-17 -31 0 -6 -6 -15 -13 -19 -8 -4 -17 -15 -20 -23 -4 -8 -16 -28 -26 -45 -21
-33 -26 -61 -12 -69 16 -10 40 5 43 27 4 28 27 28 42 2 20 -36 40 -44 49 -21
7 17 -20 76 -34 76 -5 0 -9 11 -9 25 0 14 5 25 10 25 6 0 10 10 10 21 0 12 8
28 18 35 12 10 14 16 6 21 -7 5 -14 19 -15 33 -5 34 -49 42 -49 9z"/>
<path d="M2887 2634 c-4 -4 -7 -15 -7 -25 0 -10 -8 -22 -17 -28 -14 -8 -15
-12 -4 -25 8 -9 11 -26 7 -41 -7 -26 -20 -32 -31 -15 -4 6 -11 7 -17 4 -6 -4
-25 -7 -42 -8 -24 -1 -31 -6 -31 -21 0 -14 7 -20 25 -22 14 0 31 -1 38 -2 15
-1 16 -41 1 -41 -6 0 -9 -10 -7 -22 2 -17 10 -22 33 -23 23 0 31 -5 33 -22 4
-24 34 -39 54 -27 7 5 21 9 30 9 24 2 32 11 23 25 -4 7 -16 9 -28 6 -25 -6
-57 10 -57 29 0 9 -6 24 -12 36 -11 17 -10 22 5 33 9 7 27 11 40 9 16 -3 25 2
32 19 8 17 17 22 38 20 33 -3 50 25 24 40 -10 5 -17 17 -17 28 0 22 -19 31
-41 19 -19 -10 -36 0 -40 25 -4 21 -21 31 -32 20z"/>
<path d="M3060 2300 c0 -16 5 -30 10 -30 6 0 10 -9 10 -20 0 -10 6 -23 13 -27
28 -18 49 -83 27 -83 -16 0 -12 -37 5 -44 8 -3 15 -12 15 -21 0 -19 21 -57 38
-68 6 -4 12 -17 12 -28 0 -11 7 -22 15 -25 8 -4 15 -12 15 -19 0 -7 -7 -15
-15 -19 -16 -6 -21 -46 -6 -46 11 0 41 -56 41 -77 0 -7 -4 -13 -10 -13 -5 0
-10 -11 -10 -25 0 -14 5 -25 10 -25 6 0 10 -9 10 -19 0 -10 7 -21 15 -25 8 -3
15 -14 15 -25 0 -10 -7 -21 -15 -25 -8 -3 -15 -12 -15 -21 0 -9 7 -18 15 -21
16 -7 21 -44 6 -44 -11 0 -41 -56 -41 -76 0 -20 19 -27 35 -14 8 7 15 21 15
31 0 11 5 19 10 19 6 0 10 9 10 20 0 11 7 23 15 26 8 4 15 12 15 19 0 7 -7 15
-15 19 -8 3 -15 12 -15 21 0 9 7 18 15 21 8 4 15 14 15 24 0 11 5 22 10 25 6
3 10 15 10 26 0 10 -4 19 -10 19 -5 0 -10 11 -10 24 0 13 -6 26 -12 29 -10 3
-10 10 1 30 12 23 12 31 1 52 -11 21 -11 29 0 51 13 23 12 27 -3 35 -9 6 -17
19 -17 29 0 11 -4 20 -10 20 -13 0 -13 43 0 56 11 11 -12 68 -31 79 -5 4 -9
15 -9 26 0 19 -8 23 -48 19 -16 -1 -25 5 -29 18 -3 12 -11 23 -19 26 -8 3 -14
15 -14 26 0 11 -4 20 -10 20 -5 0 -10 9 -10 20 0 16 -26 40 -44 40 -3 0 -6
-13 -6 -30z"/>
<path d="M3173 1413 c-7 -3 -13 -13 -13 -23 0 -10 -4 -22 -10 -25 -5 -3 -10
-15 -10 -26 0 -10 5 -19 10 -19 6 0 10 -9 10 -20 0 -11 -4 -20 -9 -20 -11 0
-41 -56 -41 -77 0 -7 -4 -13 -9 -13 -11 0 -41 -56 -41 -76 0 -7 -8 -17 -17
-23 -16 -8 -16 -12 -3 -38 17 -31 41 -54 52 -47 10 6 38 65 38 79 0 7 7 15 15
19 17 6 21 36 5 36 -5 0 -10 11 -10 25 0 14 4 25 9 25 5 0 11 10 13 23 2 16
10 22 28 23 14 1 31 2 38 3 17 2 15 30 -3 37 -8 4 -15 12 -15 19 0 7 7 18 15
25 8 7 15 19 15 28 0 8 8 20 17 27 36 27 -32 57 -84 38z"/>
<path d="M4303 663 c-10 -3 -13 -48 -13 -173 0 -157 1 -170 19 -180 13 -7 267
-10 755 -10 654 0 736 2 750 16 13 13 16 42 16 165 0 85 -5 159 -10 170 -10
19 -29 19 -758 18 -411 0 -753 -3 -759 -6z"/>
</g>
</svg>
